<svg width="34" height="35" viewBox="0 0 34 35" fill="none" xmlns="http://www.w3.org/2000/svg">
  <path
    d="M31.877 17.3951C31.877 16.1676 31.776 15.2718 31.5574 14.3428H17.3406V19.8835H25.6855C25.5173 21.2604 24.6088 23.3341 22.5898 24.7275L22.5615 24.913L27.0566 28.3465L27.368 28.3772C30.2282 25.7727 31.877 21.9405 31.877 17.3951"
    fill="#4285F4" />
  <path
    d="M17.3395 31.9931C21.4278 31.9931 24.86 30.6659 27.3669 28.3766L22.5887 24.7269C21.3101 25.6061 19.5939 26.2199 17.3395 26.2199C13.3353 26.2199 9.93673 23.6155 8.72524 20.0156L8.54767 20.0305L3.87363 23.5972L3.8125 23.7647C6.30251 28.642 11.4172 31.9931 17.3395 31.9931Z"
    fill="#34A853" />
  <path
    d="M8.72612 20.0157C8.40646 19.0867 8.22146 18.0913 8.22146 17.0628C8.22146 16.0342 8.40646 15.0389 8.7093 14.1099L8.70083 13.9121L3.96821 10.2881L3.81336 10.3607C2.78711 12.3846 2.19824 14.6574 2.19824 17.0628C2.19824 19.4682 2.78711 21.7408 3.81336 23.7647L8.72612 20.0157"
    fill="#FBBC05" />
  <path
    d="M17.3396 7.90579C20.1829 7.90579 22.1008 9.11679 23.1945 10.1288L27.4679 6.01467C24.8434 3.60925 21.4279 2.13281 17.3396 2.13281C11.4172 2.13281 6.30252 5.48379 3.8125 10.361L8.70845 14.1102C9.93676 10.5103 13.3353 7.90579 17.3396 7.90579"
    fill="#EB4335" />
</svg>